<mxfile host="app.diagrams.net" agent="Mozilla/5.0 (Windows NT 10.0; Win64; x64) AppleWebKit/537.36 (KHTML, like Gecko) Chrome/133.0.0.0 Safari/537.36" version="26.0.11">
  <diagram name="Page-1" id="6IxZzTRa6HkwWOLkjuHw">
    <mxGraphModel dx="2585" dy="1163" grid="1" gridSize="10" guides="1" tooltips="1" connect="1" arrows="1" fold="1" page="1" pageScale="1" pageWidth="850" pageHeight="1100" math="0" shadow="0">
      <root>
        <mxCell id="0" />
        <mxCell id="1" parent="0" />
        <mxCell id="cHLdA_97b5sgt9IyF1GO-1" value="&lt;b&gt;User&lt;/b&gt;" style="swimlane;fontStyle=0;childLayout=stackLayout;horizontal=1;startSize=30;horizontalStack=0;resizeParent=1;resizeParentMax=0;resizeLast=0;collapsible=1;marginBottom=0;whiteSpace=wrap;html=1;fillColor=light-dark(#FFFF33,var(--ge-dark-color, #121212));" parent="1" vertex="1">
          <mxGeometry x="370" y="120" width="140" height="210" as="geometry" />
        </mxCell>
        <mxCell id="cHLdA_97b5sgt9IyF1GO-2" value="#&lt;b&gt; id &lt;font style=&quot;color: rgb(255, 0, 0);&quot;&gt;int&lt;/font&gt;&lt;/b&gt;" style="text;strokeColor=none;fillColor=none;align=left;verticalAlign=middle;spacingLeft=4;spacingRight=4;overflow=hidden;points=[[0,0.5],[1,0.5]];portConstraint=eastwest;rotatable=0;whiteSpace=wrap;html=1;" parent="cHLdA_97b5sgt9IyF1GO-1" vertex="1">
          <mxGeometry y="30" width="140" height="30" as="geometry" />
        </mxCell>
        <mxCell id="cHLdA_97b5sgt9IyF1GO-3" value="&lt;b&gt;# name &lt;font style=&quot;color: rgb(255, 0, 0);&quot;&gt;string&lt;/font&gt;&lt;/b&gt;" style="text;strokeColor=none;fillColor=none;align=left;verticalAlign=middle;spacingLeft=4;spacingRight=4;overflow=hidden;points=[[0,0.5],[1,0.5]];portConstraint=eastwest;rotatable=0;whiteSpace=wrap;html=1;" parent="cHLdA_97b5sgt9IyF1GO-1" vertex="1">
          <mxGeometry y="60" width="140" height="30" as="geometry" />
        </mxCell>
        <mxCell id="cHLdA_97b5sgt9IyF1GO-4" value="&lt;b&gt;# email &lt;font style=&quot;color: rgb(255, 0, 0);&quot;&gt;string&lt;/font&gt;&lt;/b&gt;" style="text;strokeColor=none;fillColor=none;align=left;verticalAlign=middle;spacingLeft=4;spacingRight=4;overflow=hidden;points=[[0,0.5],[1,0.5]];portConstraint=eastwest;rotatable=0;whiteSpace=wrap;html=1;" parent="cHLdA_97b5sgt9IyF1GO-1" vertex="1">
          <mxGeometry y="90" width="140" height="30" as="geometry" />
        </mxCell>
        <mxCell id="cHLdA_97b5sgt9IyF1GO-5" value="&lt;b&gt;# password&amp;nbsp;&lt;font style=&quot;color: rgb(255, 0, 0);&quot;&gt;string&lt;/font&gt;&lt;/b&gt;" style="text;strokeColor=none;fillColor=none;align=left;verticalAlign=middle;spacingLeft=4;spacingRight=4;overflow=hidden;points=[[0,0.5],[1,0.5]];portConstraint=eastwest;rotatable=0;whiteSpace=wrap;html=1;" parent="cHLdA_97b5sgt9IyF1GO-1" vertex="1">
          <mxGeometry y="120" width="140" height="30" as="geometry" />
        </mxCell>
        <mxCell id="cHLdA_97b5sgt9IyF1GO-40" value="&lt;b&gt;&lt;font style=&quot;color: rgb(0, 0, 255);&quot;&gt;+ register()&lt;/font&gt;&lt;/b&gt;" style="text;strokeColor=none;fillColor=none;align=left;verticalAlign=middle;spacingLeft=4;spacingRight=4;overflow=hidden;points=[[0,0.5],[1,0.5]];portConstraint=eastwest;rotatable=0;whiteSpace=wrap;html=1;" parent="cHLdA_97b5sgt9IyF1GO-1" vertex="1">
          <mxGeometry y="150" width="140" height="30" as="geometry" />
        </mxCell>
        <mxCell id="cHLdA_97b5sgt9IyF1GO-7" value="&lt;b&gt;&lt;font style=&quot;color: rgb(0, 0, 255);&quot;&gt;+ login()&lt;/font&gt;&lt;/b&gt;" style="text;strokeColor=none;fillColor=none;align=left;verticalAlign=middle;spacingLeft=4;spacingRight=4;overflow=hidden;points=[[0,0.5],[1,0.5]];portConstraint=eastwest;rotatable=0;whiteSpace=wrap;html=1;" parent="cHLdA_97b5sgt9IyF1GO-1" vertex="1">
          <mxGeometry y="180" width="140" height="30" as="geometry" />
        </mxCell>
        <mxCell id="cHLdA_97b5sgt9IyF1GO-10" value="&lt;b&gt;Client&lt;/b&gt;" style="swimlane;fontStyle=0;childLayout=stackLayout;horizontal=1;startSize=30;horizontalStack=0;resizeParent=1;resizeParentMax=0;resizeLast=0;collapsible=1;marginBottom=0;whiteSpace=wrap;html=1;fillColor=light-dark(#FFFF33,var(--ge-dark-color, #121212));" parent="1" vertex="1">
          <mxGeometry x="172" y="360" width="140" height="60" as="geometry" />
        </mxCell>
        <mxCell id="cHLdA_97b5sgt9IyF1GO-24" value="&lt;b&gt;ServiceProvider&lt;/b&gt;" style="swimlane;fontStyle=0;childLayout=stackLayout;horizontal=1;startSize=30;horizontalStack=0;resizeParent=1;resizeParentMax=0;resizeLast=0;collapsible=1;marginBottom=0;whiteSpace=wrap;html=1;fillColor=light-dark(#FFFF33,var(--ge-dark-color, #121212));" parent="1" vertex="1">
          <mxGeometry x="360" y="390" width="160" height="90" as="geometry" />
        </mxCell>
        <mxCell id="cHLdA_97b5sgt9IyF1GO-26" value="&lt;b&gt;-&amp;nbsp; location&amp;nbsp;&lt;/b&gt;&lt;b&gt;&lt;font style=&quot;color: rgb(255, 0, 0);&quot;&gt;string&lt;/font&gt;&lt;/b&gt;" style="text;strokeColor=none;fillColor=none;align=left;verticalAlign=middle;spacingLeft=4;spacingRight=4;overflow=hidden;points=[[0,0.5],[1,0.5]];portConstraint=eastwest;rotatable=0;whiteSpace=wrap;html=1;" parent="cHLdA_97b5sgt9IyF1GO-24" vertex="1">
          <mxGeometry y="30" width="160" height="30" as="geometry" />
        </mxCell>
        <mxCell id="cHLdA_97b5sgt9IyF1GO-27" value="&lt;b&gt;-&amp;nbsp;availability&amp;nbsp;&lt;font style=&quot;color: rgb(255, 0, 0);&quot;&gt;TimeSlot[]&lt;/font&gt;&lt;/b&gt;" style="text;strokeColor=none;fillColor=none;align=left;verticalAlign=middle;spacingLeft=4;spacingRight=4;overflow=hidden;points=[[0,0.5],[1,0.5]];portConstraint=eastwest;rotatable=0;whiteSpace=wrap;html=1;" parent="cHLdA_97b5sgt9IyF1GO-24" vertex="1">
          <mxGeometry y="60" width="160" height="30" as="geometry" />
        </mxCell>
        <mxCell id="cHLdA_97b5sgt9IyF1GO-41" value="&lt;b&gt;Admin&lt;/b&gt;" style="swimlane;fontStyle=0;childLayout=stackLayout;horizontal=1;startSize=30;horizontalStack=0;resizeParent=1;resizeParentMax=0;resizeLast=0;collapsible=1;marginBottom=0;whiteSpace=wrap;html=1;fillColor=light-dark(#FFFF33,var(--ge-dark-color, #121212));" parent="1" vertex="1">
          <mxGeometry x="580" y="400" width="190" height="60" as="geometry" />
        </mxCell>
        <mxCell id="cHLdA_97b5sgt9IyF1GO-49" value="&lt;b&gt;Service&amp;nbsp;&lt;/b&gt;" style="swimlane;fontStyle=0;childLayout=stackLayout;horizontal=1;startSize=30;horizontalStack=0;resizeParent=1;resizeParentMax=0;resizeLast=0;collapsible=1;marginBottom=0;whiteSpace=wrap;html=1;fillColor=light-dark(#FFFF33,var(--ge-dark-color, #121212));" parent="1" vertex="1">
          <mxGeometry x="570" y="705" width="140" height="300" as="geometry" />
        </mxCell>
        <mxCell id="cHLdA_97b5sgt9IyF1GO-50" value="&lt;b&gt;-&amp;nbsp; id&amp;nbsp;&lt;font style=&quot;color: rgb(255, 0, 0);&quot;&gt;int&lt;/font&gt;&lt;/b&gt;" style="text;strokeColor=none;fillColor=none;align=left;verticalAlign=middle;spacingLeft=4;spacingRight=4;overflow=hidden;points=[[0,0.5],[1,0.5]];portConstraint=eastwest;rotatable=0;whiteSpace=wrap;html=1;" parent="cHLdA_97b5sgt9IyF1GO-49" vertex="1">
          <mxGeometry y="30" width="140" height="30" as="geometry" />
        </mxCell>
        <mxCell id="cHLdA_97b5sgt9IyF1GO-51" value="&lt;b&gt;-&amp;nbsp; name&amp;nbsp;&lt;/b&gt;&lt;b&gt;&lt;font style=&quot;color: rgb(255, 0, 0);&quot;&gt;string&lt;/font&gt;&lt;/b&gt;" style="text;strokeColor=none;fillColor=none;align=left;verticalAlign=middle;spacingLeft=4;spacingRight=4;overflow=hidden;points=[[0,0.5],[1,0.5]];portConstraint=eastwest;rotatable=0;whiteSpace=wrap;html=1;" parent="cHLdA_97b5sgt9IyF1GO-49" vertex="1">
          <mxGeometry y="60" width="140" height="30" as="geometry" />
        </mxCell>
        <mxCell id="cHLdA_97b5sgt9IyF1GO-52" value="&lt;b&gt;-&amp;nbsp;description&amp;nbsp;&lt;font style=&quot;color: rgb(255, 0, 0);&quot;&gt;string&lt;/font&gt;&lt;/b&gt;" style="text;strokeColor=none;fillColor=none;align=left;verticalAlign=middle;spacingLeft=4;spacingRight=4;overflow=hidden;points=[[0,0.5],[1,0.5]];portConstraint=eastwest;rotatable=0;whiteSpace=wrap;html=1;" parent="cHLdA_97b5sgt9IyF1GO-49" vertex="1">
          <mxGeometry y="90" width="140" height="30" as="geometry" />
        </mxCell>
        <mxCell id="cHLdA_97b5sgt9IyF1GO-58" value="&lt;b&gt;-&amp;nbsp;category&amp;nbsp;&lt;font style=&quot;color: rgb(255, 0, 0);&quot;&gt;Category&lt;/font&gt;&lt;/b&gt;" style="text;strokeColor=none;fillColor=none;align=left;verticalAlign=middle;spacingLeft=4;spacingRight=4;overflow=hidden;points=[[0,0.5],[1,0.5]];portConstraint=eastwest;rotatable=0;whiteSpace=wrap;html=1;" parent="cHLdA_97b5sgt9IyF1GO-49" vertex="1">
          <mxGeometry y="120" width="140" height="30" as="geometry" />
        </mxCell>
        <mxCell id="cHLdA_97b5sgt9IyF1GO-59" value="&lt;b&gt;-&amp;nbsp;price&amp;nbsp;&lt;font style=&quot;color: rgb(255, 0, 0);&quot;&gt;float&lt;/font&gt;&lt;/b&gt;" style="text;strokeColor=none;fillColor=none;align=left;verticalAlign=middle;spacingLeft=4;spacingRight=4;overflow=hidden;points=[[0,0.5],[1,0.5]];portConstraint=eastwest;rotatable=0;whiteSpace=wrap;html=1;" parent="cHLdA_97b5sgt9IyF1GO-49" vertex="1">
          <mxGeometry y="150" width="140" height="30" as="geometry" />
        </mxCell>
        <mxCell id="cHLdA_97b5sgt9IyF1GO-60" value="&lt;b&gt;-&amp;nbsp;duration&amp;nbsp;&lt;font style=&quot;color: rgb(255, 0, 0);&quot;&gt;int&lt;/font&gt;&lt;/b&gt;" style="text;strokeColor=none;fillColor=none;align=left;verticalAlign=middle;spacingLeft=4;spacingRight=4;overflow=hidden;points=[[0,0.5],[1,0.5]];portConstraint=eastwest;rotatable=0;whiteSpace=wrap;html=1;" parent="cHLdA_97b5sgt9IyF1GO-49" vertex="1">
          <mxGeometry y="180" width="140" height="30" as="geometry" />
        </mxCell>
        <mxCell id="cHLdA_97b5sgt9IyF1GO-48" value="&lt;font color=&quot;#0000ff&quot;&gt;&lt;b&gt;+manageService()&lt;/b&gt;&lt;/font&gt;" style="text;strokeColor=none;fillColor=none;align=left;verticalAlign=middle;spacingLeft=4;spacingRight=4;overflow=hidden;points=[[0,0.5],[1,0.5]];portConstraint=eastwest;rotatable=0;whiteSpace=wrap;html=1;" parent="cHLdA_97b5sgt9IyF1GO-49" vertex="1">
          <mxGeometry y="210" width="140" height="30" as="geometry" />
        </mxCell>
        <mxCell id="cHLdA_97b5sgt9IyF1GO-29" value="&lt;b&gt;&lt;font style=&quot;color: rgb(0, 0, 255);&quot;&gt;&lt;font style=&quot;color: rgb(0, 0, 255);&quot;&gt;+ add&lt;/font&gt;&lt;font style=&quot;color: rgb(0, 0, 255);&quot;&gt;Availability&lt;/font&gt;&lt;font style=&quot;color: rgb(0, 0, 255);&quot;&gt;()&lt;/font&gt;&lt;/font&gt;&lt;/b&gt;" style="text;strokeColor=none;fillColor=none;align=left;verticalAlign=middle;spacingLeft=4;spacingRight=4;overflow=hidden;points=[[0,0.5],[1,0.5]];portConstraint=eastwest;rotatable=0;whiteSpace=wrap;html=1;" parent="cHLdA_97b5sgt9IyF1GO-49" vertex="1">
          <mxGeometry y="240" width="140" height="30" as="geometry" />
        </mxCell>
        <mxCell id="cHLdA_97b5sgt9IyF1GO-30" value="&lt;b&gt;&lt;font style=&quot;color: rgb(0, 0, 255);&quot;&gt;+ updateAvailability()&lt;/font&gt;&lt;/b&gt;" style="text;strokeColor=none;fillColor=none;align=left;verticalAlign=middle;spacingLeft=4;spacingRight=4;overflow=hidden;points=[[0,0.5],[1,0.5]];portConstraint=eastwest;rotatable=0;whiteSpace=wrap;html=1;" parent="cHLdA_97b5sgt9IyF1GO-49" vertex="1">
          <mxGeometry y="270" width="140" height="30" as="geometry" />
        </mxCell>
        <mxCell id="cHLdA_97b5sgt9IyF1GO-61" value="&lt;b&gt;Reservation&amp;nbsp;&lt;/b&gt;" style="swimlane;fontStyle=0;childLayout=stackLayout;horizontal=1;startSize=30;horizontalStack=0;resizeParent=1;resizeParentMax=0;resizeLast=0;collapsible=1;marginBottom=0;whiteSpace=wrap;html=1;fillColor=light-dark(#FFFF33,var(--ge-dark-color, #121212));" parent="1" vertex="1">
          <mxGeometry x="265" y="671" width="205" height="360" as="geometry" />
        </mxCell>
        <mxCell id="cHLdA_97b5sgt9IyF1GO-62" value="&lt;b&gt;-&amp;nbsp; id&amp;nbsp;&lt;font style=&quot;color: rgb(255, 0, 0);&quot;&gt;int&lt;/font&gt;&lt;/b&gt;" style="text;strokeColor=none;fillColor=none;align=left;verticalAlign=middle;spacingLeft=4;spacingRight=4;overflow=hidden;points=[[0,0.5],[1,0.5]];portConstraint=eastwest;rotatable=0;whiteSpace=wrap;html=1;" parent="cHLdA_97b5sgt9IyF1GO-61" vertex="1">
          <mxGeometry y="30" width="205" height="30" as="geometry" />
        </mxCell>
        <mxCell id="cHLdA_97b5sgt9IyF1GO-63" value="&lt;b&gt;-&amp;nbsp; user&amp;nbsp;&lt;/b&gt;&lt;b&gt;&lt;font style=&quot;color: rgb(255, 0, 0);&quot;&gt;User&lt;/font&gt;&lt;/b&gt;" style="text;strokeColor=none;fillColor=none;align=left;verticalAlign=middle;spacingLeft=4;spacingRight=4;overflow=hidden;points=[[0,0.5],[1,0.5]];portConstraint=eastwest;rotatable=0;whiteSpace=wrap;html=1;" parent="cHLdA_97b5sgt9IyF1GO-61" vertex="1">
          <mxGeometry y="60" width="205" height="30" as="geometry" />
        </mxCell>
        <mxCell id="cHLdA_97b5sgt9IyF1GO-64" value="&lt;b&gt;- s&lt;/b&gt;&lt;b style=&quot;text-align: center;&quot;&gt;erviceProvider&amp;nbsp;&lt;/b&gt;&lt;b&gt;&lt;font color=&quot;#ff0000&quot;&gt;ServiceProvider&lt;/font&gt;&lt;/b&gt;" style="text;strokeColor=none;fillColor=none;align=left;verticalAlign=middle;spacingLeft=4;spacingRight=4;overflow=hidden;points=[[0,0.5],[1,0.5]];portConstraint=eastwest;rotatable=0;whiteSpace=wrap;html=1;" parent="cHLdA_97b5sgt9IyF1GO-61" vertex="1">
          <mxGeometry y="90" width="205" height="30" as="geometry" />
        </mxCell>
        <mxCell id="cHLdA_97b5sgt9IyF1GO-65" value="&lt;b&gt;-&amp;nbsp;service &lt;font color=&quot;#ff0000&quot;&gt;Service&lt;/font&gt;&lt;/b&gt;" style="text;strokeColor=none;fillColor=none;align=left;verticalAlign=middle;spacingLeft=4;spacingRight=4;overflow=hidden;points=[[0,0.5],[1,0.5]];portConstraint=eastwest;rotatable=0;whiteSpace=wrap;html=1;" parent="cHLdA_97b5sgt9IyF1GO-61" vertex="1">
          <mxGeometry y="120" width="205" height="30" as="geometry" />
        </mxCell>
        <mxCell id="cHLdA_97b5sgt9IyF1GO-66" value="&lt;b&gt;-&amp;nbsp;date&lt;/b&gt;&amp;nbsp;&lt;b&gt;&lt;font style=&quot;color: rgb(255, 0, 0);&quot;&gt;date&lt;/font&gt;&lt;/b&gt;" style="text;strokeColor=none;fillColor=none;align=left;verticalAlign=middle;spacingLeft=4;spacingRight=4;overflow=hidden;points=[[0,0.5],[1,0.5]];portConstraint=eastwest;rotatable=0;whiteSpace=wrap;html=1;" parent="cHLdA_97b5sgt9IyF1GO-61" vertex="1">
          <mxGeometry y="150" width="205" height="30" as="geometry" />
        </mxCell>
        <mxCell id="cHLdA_97b5sgt9IyF1GO-67" value="&lt;b&gt;-&amp;nbsp;timeSlot &lt;/b&gt;&lt;b&gt;&lt;font style=&quot;color: rgb(255, 0, 0);&quot;&gt;TimeSlot&lt;/font&gt;&lt;/b&gt;" style="text;strokeColor=none;fillColor=none;align=left;verticalAlign=middle;spacingLeft=4;spacingRight=4;overflow=hidden;points=[[0,0.5],[1,0.5]];portConstraint=eastwest;rotatable=0;whiteSpace=wrap;html=1;" parent="cHLdA_97b5sgt9IyF1GO-61" vertex="1">
          <mxGeometry y="180" width="205" height="30" as="geometry" />
        </mxCell>
        <mxCell id="cHLdA_97b5sgt9IyF1GO-69" value="&lt;b&gt;&lt;font style=&quot;color: rgb(0, 0, 255);&quot;&gt;+ createReservation()&lt;/font&gt;&lt;/b&gt;" style="text;strokeColor=none;fillColor=none;align=left;verticalAlign=middle;spacingLeft=4;spacingRight=4;overflow=hidden;points=[[0,0.5],[1,0.5]];portConstraint=eastwest;rotatable=0;whiteSpace=wrap;html=1;" parent="cHLdA_97b5sgt9IyF1GO-61" vertex="1">
          <mxGeometry y="210" width="205" height="30" as="geometry" />
        </mxCell>
        <mxCell id="cHLdA_97b5sgt9IyF1GO-70" value="&lt;b&gt;&lt;font style=&quot;color: rgb(0, 0, 255);&quot;&gt;+ confirmReservation()&lt;/font&gt;&lt;/b&gt;" style="text;strokeColor=none;fillColor=none;align=left;verticalAlign=middle;spacingLeft=4;spacingRight=4;overflow=hidden;points=[[0,0.5],[1,0.5]];portConstraint=eastwest;rotatable=0;whiteSpace=wrap;html=1;" parent="cHLdA_97b5sgt9IyF1GO-61" vertex="1">
          <mxGeometry y="240" width="205" height="30" as="geometry" />
        </mxCell>
        <mxCell id="cHLdA_97b5sgt9IyF1GO-71" value="&lt;b&gt;&lt;font style=&quot;color: rgb(0, 0, 255);&quot;&gt;+ cancelReservation()&lt;/font&gt;&lt;/b&gt;" style="text;strokeColor=none;fillColor=none;align=left;verticalAlign=middle;spacingLeft=4;spacingRight=4;overflow=hidden;points=[[0,0.5],[1,0.5]];portConstraint=eastwest;rotatable=0;whiteSpace=wrap;html=1;" parent="cHLdA_97b5sgt9IyF1GO-61" vertex="1">
          <mxGeometry y="270" width="205" height="30" as="geometry" />
        </mxCell>
        <mxCell id="cHLdA_97b5sgt9IyF1GO-97" value="&lt;font color=&quot;#0000ff&quot;&gt;&lt;b&gt;&amp;nbsp;+viewStatistics()&lt;/b&gt;&lt;/font&gt;" style="text;strokeColor=none;fillColor=none;align=left;verticalAlign=middle;spacingLeft=4;spacingRight=4;overflow=hidden;points=[[0,0.5],[1,0.5]];portConstraint=eastwest;rotatable=0;whiteSpace=wrap;html=1;" parent="cHLdA_97b5sgt9IyF1GO-61" vertex="1">
          <mxGeometry y="300" width="205" height="30" as="geometry" />
        </mxCell>
        <mxCell id="cHLdA_97b5sgt9IyF1GO-17" value="&lt;span class=&quot;notion-enable-hover&quot; data-token-index=&quot;0&quot; style=&quot;font-weight: 600; fill: rgb(51, 126, 169); isolation: auto;&quot;&gt;&lt;font style=&quot;color: rgb(0, 0, 255);&quot;&gt;+ viewReservations()&lt;/font&gt;&lt;/span&gt;" style="text;strokeColor=none;fillColor=none;align=left;verticalAlign=middle;spacingLeft=4;spacingRight=4;overflow=hidden;points=[[0,0.5],[1,0.5]];portConstraint=eastwest;rotatable=0;whiteSpace=wrap;html=1;" parent="cHLdA_97b5sgt9IyF1GO-61" vertex="1">
          <mxGeometry y="330" width="205" height="30" as="geometry" />
        </mxCell>
        <mxCell id="cHLdA_97b5sgt9IyF1GO-73" value="&lt;b&gt;TimeSlot&amp;nbsp;&lt;/b&gt;" style="swimlane;fontStyle=0;childLayout=stackLayout;horizontal=1;startSize=30;horizontalStack=0;resizeParent=1;resizeParentMax=0;resizeLast=0;collapsible=1;marginBottom=0;whiteSpace=wrap;html=1;fillColor=light-dark(#FFFF33,var(--ge-dark-color, #121212));" parent="1" vertex="1">
          <mxGeometry x="220" y="1120" width="140" height="150" as="geometry" />
        </mxCell>
        <mxCell id="cHLdA_97b5sgt9IyF1GO-74" value="&lt;b&gt;-&amp;nbsp; id&amp;nbsp;&lt;font style=&quot;color: rgb(255, 0, 0);&quot;&gt;int&lt;/font&gt;&lt;/b&gt;" style="text;strokeColor=none;fillColor=none;align=left;verticalAlign=middle;spacingLeft=4;spacingRight=4;overflow=hidden;points=[[0,0.5],[1,0.5]];portConstraint=eastwest;rotatable=0;whiteSpace=wrap;html=1;" parent="cHLdA_97b5sgt9IyF1GO-73" vertex="1">
          <mxGeometry y="30" width="140" height="30" as="geometry" />
        </mxCell>
        <mxCell id="cHLdA_97b5sgt9IyF1GO-75" value="&lt;b&gt;-&amp;nbsp; startTime &lt;/b&gt;&lt;b&gt;&lt;font style=&quot;color: rgb(255, 0, 0);&quot;&gt;Time&lt;/font&gt;&lt;/b&gt;" style="text;strokeColor=none;fillColor=none;align=left;verticalAlign=middle;spacingLeft=4;spacingRight=4;overflow=hidden;points=[[0,0.5],[1,0.5]];portConstraint=eastwest;rotatable=0;whiteSpace=wrap;html=1;" parent="cHLdA_97b5sgt9IyF1GO-73" vertex="1">
          <mxGeometry y="60" width="140" height="30" as="geometry" />
        </mxCell>
        <mxCell id="cHLdA_97b5sgt9IyF1GO-76" value="&lt;b&gt;- endTime&amp;nbsp;&lt;font style=&quot;color: rgb(255, 0, 0);&quot;&gt;Time&lt;/font&gt;&lt;/b&gt;" style="text;strokeColor=none;fillColor=none;align=left;verticalAlign=middle;spacingLeft=4;spacingRight=4;overflow=hidden;points=[[0,0.5],[1,0.5]];portConstraint=eastwest;rotatable=0;whiteSpace=wrap;html=1;" parent="cHLdA_97b5sgt9IyF1GO-73" vertex="1">
          <mxGeometry y="90" width="140" height="30" as="geometry" />
        </mxCell>
        <mxCell id="cHLdA_97b5sgt9IyF1GO-77" value="&lt;b&gt;-&amp;nbsp; isAvailable&amp;nbsp;&lt;font style=&quot;color: rgb(255, 0, 0);&quot;&gt;boolean&lt;/font&gt;&lt;/b&gt;" style="text;strokeColor=none;fillColor=none;align=left;verticalAlign=middle;spacingLeft=4;spacingRight=4;overflow=hidden;points=[[0,0.5],[1,0.5]];portConstraint=eastwest;rotatable=0;whiteSpace=wrap;html=1;" parent="cHLdA_97b5sgt9IyF1GO-73" vertex="1">
          <mxGeometry y="120" width="140" height="30" as="geometry" />
        </mxCell>
        <mxCell id="cHLdA_97b5sgt9IyF1GO-80" value="&lt;b&gt;Payment&amp;nbsp;&lt;/b&gt;" style="swimlane;fontStyle=0;childLayout=stackLayout;horizontal=1;startSize=30;horizontalStack=0;resizeParent=1;resizeParentMax=0;resizeLast=0;collapsible=1;marginBottom=0;whiteSpace=wrap;html=1;fillColor=light-dark(#FFFF33,var(--ge-dark-color, #121212));" parent="1" vertex="1">
          <mxGeometry x="495" y="1020" width="160" height="210" as="geometry" />
        </mxCell>
        <mxCell id="cHLdA_97b5sgt9IyF1GO-81" value="&lt;b&gt;-&amp;nbsp; id&amp;nbsp;&lt;font style=&quot;color: rgb(255, 0, 0);&quot;&gt;int&lt;/font&gt;&lt;/b&gt;" style="text;strokeColor=none;fillColor=none;align=left;verticalAlign=middle;spacingLeft=4;spacingRight=4;overflow=hidden;points=[[0,0.5],[1,0.5]];portConstraint=eastwest;rotatable=0;whiteSpace=wrap;html=1;" parent="cHLdA_97b5sgt9IyF1GO-80" vertex="1">
          <mxGeometry y="30" width="160" height="30" as="geometry" />
        </mxCell>
        <mxCell id="cHLdA_97b5sgt9IyF1GO-83" value="&lt;b&gt;- reservation&amp;nbsp;&lt;font color=&quot;#ff0000&quot;&gt;Reservation&lt;/font&gt;&lt;/b&gt;" style="text;strokeColor=none;fillColor=none;align=left;verticalAlign=middle;spacingLeft=4;spacingRight=4;overflow=hidden;points=[[0,0.5],[1,0.5]];portConstraint=eastwest;rotatable=0;whiteSpace=wrap;html=1;" parent="cHLdA_97b5sgt9IyF1GO-80" vertex="1">
          <mxGeometry y="60" width="160" height="30" as="geometry" />
        </mxCell>
        <mxCell id="cHLdA_97b5sgt9IyF1GO-84" value="&lt;b&gt;-&amp;nbsp;amount&amp;nbsp;&lt;font color=&quot;#ff0000&quot;&gt;float&lt;/font&gt;&lt;/b&gt;" style="text;strokeColor=none;fillColor=none;align=left;verticalAlign=middle;spacingLeft=4;spacingRight=4;overflow=hidden;points=[[0,0.5],[1,0.5]];portConstraint=eastwest;rotatable=0;whiteSpace=wrap;html=1;" parent="cHLdA_97b5sgt9IyF1GO-80" vertex="1">
          <mxGeometry y="90" width="160" height="30" as="geometry" />
        </mxCell>
        <mxCell id="mhdK4omJHa3uALLpDZvU-17" value="&lt;b&gt;- paymentMethod&amp;nbsp;&lt;/b&gt;&lt;b&gt;&lt;font style=&quot;color: rgb(255, 0, 0);&quot;&gt;string&lt;/font&gt;&lt;/b&gt;" style="text;strokeColor=none;fillColor=none;align=left;verticalAlign=middle;spacingLeft=4;spacingRight=4;overflow=hidden;points=[[0,0.5],[1,0.5]];portConstraint=eastwest;rotatable=0;whiteSpace=wrap;html=1;" parent="cHLdA_97b5sgt9IyF1GO-80" vertex="1">
          <mxGeometry y="120" width="160" height="30" as="geometry" />
        </mxCell>
        <mxCell id="cHLdA_97b5sgt9IyF1GO-85" value="&lt;b&gt;- status&amp;nbsp;&lt;/b&gt;&lt;b&gt;&lt;font style=&quot;color: rgb(255, 0, 0);&quot;&gt;string&lt;/font&gt;&lt;/b&gt;" style="text;strokeColor=none;fillColor=none;align=left;verticalAlign=middle;spacingLeft=4;spacingRight=4;overflow=hidden;points=[[0,0.5],[1,0.5]];portConstraint=eastwest;rotatable=0;whiteSpace=wrap;html=1;" parent="cHLdA_97b5sgt9IyF1GO-80" vertex="1">
          <mxGeometry y="150" width="160" height="30" as="geometry" />
        </mxCell>
        <mxCell id="cHLdA_97b5sgt9IyF1GO-87" value="&lt;b&gt;&lt;font style=&quot;color: rgb(0, 0, 255);&quot;&gt;+ processPayment()&lt;/font&gt;&lt;/b&gt;" style="text;strokeColor=none;fillColor=none;align=left;verticalAlign=middle;spacingLeft=4;spacingRight=4;overflow=hidden;points=[[0,0.5],[1,0.5]];portConstraint=eastwest;rotatable=0;whiteSpace=wrap;html=1;" parent="cHLdA_97b5sgt9IyF1GO-80" vertex="1">
          <mxGeometry y="180" width="160" height="30" as="geometry" />
        </mxCell>
        <mxCell id="cHLdA_97b5sgt9IyF1GO-98" value="&lt;b&gt;*&lt;/b&gt;" style="text;html=1;align=center;verticalAlign=middle;whiteSpace=wrap;rounded=0;" parent="1" vertex="1">
          <mxGeometry x="123" y="616" width="10" height="20" as="geometry" />
        </mxCell>
        <mxCell id="cHLdA_97b5sgt9IyF1GO-99" value="&lt;b&gt;*&lt;/b&gt;" style="text;html=1;align=center;verticalAlign=middle;whiteSpace=wrap;rounded=0;" parent="1" vertex="1">
          <mxGeometry x="347" y="651" width="10" height="20" as="geometry" />
        </mxCell>
        <mxCell id="cHLdA_97b5sgt9IyF1GO-100" value="&lt;b&gt;1&lt;/b&gt;" style="text;html=1;align=center;verticalAlign=middle;whiteSpace=wrap;rounded=0;" parent="1" vertex="1">
          <mxGeometry x="427" y="540" width="10" height="20" as="geometry" />
        </mxCell>
        <mxCell id="cHLdA_97b5sgt9IyF1GO-101" value="&lt;b&gt;*&lt;/b&gt;" style="text;html=1;align=center;verticalAlign=middle;whiteSpace=wrap;rounded=0;" parent="1" vertex="1">
          <mxGeometry x="406" y="651" width="10" height="20" as="geometry" />
        </mxCell>
        <mxCell id="cHLdA_97b5sgt9IyF1GO-105" value="&lt;b&gt;1&lt;/b&gt;" style="text;html=1;align=center;verticalAlign=middle;whiteSpace=wrap;rounded=0;" parent="1" vertex="1">
          <mxGeometry x="500" y="1002" width="10" height="20" as="geometry" />
        </mxCell>
        <mxCell id="cHLdA_97b5sgt9IyF1GO-106" value="&lt;b&gt;1&lt;/b&gt;" style="text;html=1;align=center;verticalAlign=middle;whiteSpace=wrap;rounded=0;" parent="1" vertex="1">
          <mxGeometry x="473" y="973" width="10" height="20" as="geometry" />
        </mxCell>
        <mxCell id="cHLdA_97b5sgt9IyF1GO-115" value="" style="endArrow=none;dashed=1;html=1;rounded=0;entryX=0.627;entryY=-0.017;entryDx=0;entryDy=0;entryPerimeter=0;" parent="1" source="cHLdA_97b5sgt9IyF1GO-108" target="cHLdA_97b5sgt9IyF1GO-73" edge="1">
          <mxGeometry width="50" height="50" relative="1" as="geometry">
            <mxPoint x="328.4251968503936" y="971" as="sourcePoint" />
            <mxPoint x="323.28740157480297" y="1000" as="targetPoint" />
          </mxGeometry>
        </mxCell>
        <mxCell id="cHLdA_97b5sgt9IyF1GO-124" value="&lt;b&gt;Category&lt;/b&gt;" style="swimlane;fontStyle=0;childLayout=stackLayout;horizontal=1;startSize=30;horizontalStack=0;resizeParent=1;resizeParentMax=0;resizeLast=0;collapsible=1;marginBottom=0;whiteSpace=wrap;html=1;fillColor=light-dark(#FFFF33,var(--ge-dark-color, #121212));" parent="1" vertex="1">
          <mxGeometry x="720" y="581" width="140" height="90" as="geometry" />
        </mxCell>
        <mxCell id="cHLdA_97b5sgt9IyF1GO-125" value="&lt;b&gt;-&amp;nbsp; id&amp;nbsp;&lt;font style=&quot;color: rgb(255, 0, 0);&quot;&gt;int&lt;/font&gt;&lt;/b&gt;" style="text;strokeColor=none;fillColor=none;align=left;verticalAlign=middle;spacingLeft=4;spacingRight=4;overflow=hidden;points=[[0,0.5],[1,0.5]];portConstraint=eastwest;rotatable=0;whiteSpace=wrap;html=1;" parent="cHLdA_97b5sgt9IyF1GO-124" vertex="1">
          <mxGeometry y="30" width="140" height="30" as="geometry" />
        </mxCell>
        <mxCell id="cHLdA_97b5sgt9IyF1GO-126" value="&lt;b&gt;-&amp;nbsp; name&amp;nbsp;&lt;/b&gt;&lt;b&gt;&lt;font style=&quot;color: rgb(255, 0, 0);&quot;&gt;string&lt;/font&gt;&lt;/b&gt;" style="text;strokeColor=none;fillColor=none;align=left;verticalAlign=middle;spacingLeft=4;spacingRight=4;overflow=hidden;points=[[0,0.5],[1,0.5]];portConstraint=eastwest;rotatable=0;whiteSpace=wrap;html=1;" parent="cHLdA_97b5sgt9IyF1GO-124" vertex="1">
          <mxGeometry y="60" width="140" height="30" as="geometry" />
        </mxCell>
        <mxCell id="cHLdA_97b5sgt9IyF1GO-131" value="&lt;b&gt;1&lt;/b&gt;" style="text;html=1;align=center;verticalAlign=middle;whiteSpace=wrap;rounded=0;" parent="1" vertex="1">
          <mxGeometry x="710" y="669" width="10" height="20" as="geometry" />
        </mxCell>
        <mxCell id="cHLdA_97b5sgt9IyF1GO-132" value="&lt;b&gt;*&lt;/b&gt;" style="text;html=1;align=center;verticalAlign=middle;whiteSpace=wrap;rounded=0;" parent="1" vertex="1">
          <mxGeometry x="640" y="685" width="10" height="20" as="geometry" />
        </mxCell>
        <mxCell id="cHLdA_97b5sgt9IyF1GO-135" value="&lt;b&gt;Notification&lt;/b&gt;" style="swimlane;fontStyle=0;childLayout=stackLayout;horizontal=1;startSize=30;horizontalStack=0;resizeParent=1;resizeParentMax=0;resizeLast=0;collapsible=1;marginBottom=0;whiteSpace=wrap;html=1;fillColor=light-dark(#FFFF33,var(--ge-dark-color, #121212));" parent="1" vertex="1">
          <mxGeometry x="30" y="636" width="160" height="240" as="geometry" />
        </mxCell>
        <mxCell id="cHLdA_97b5sgt9IyF1GO-136" value="&lt;b&gt;-&amp;nbsp; id&amp;nbsp;&lt;font style=&quot;color: rgb(255, 0, 0);&quot;&gt;int&lt;/font&gt;&lt;/b&gt;" style="text;strokeColor=none;fillColor=none;align=left;verticalAlign=middle;spacingLeft=4;spacingRight=4;overflow=hidden;points=[[0,0.5],[1,0.5]];portConstraint=eastwest;rotatable=0;whiteSpace=wrap;html=1;" parent="cHLdA_97b5sgt9IyF1GO-135" vertex="1">
          <mxGeometry y="30" width="160" height="30" as="geometry" />
        </mxCell>
        <mxCell id="mhdK4omJHa3uALLpDZvU-1" value="&lt;b&gt;-&amp;nbsp; user &lt;font color=&quot;#ff0000&quot;&gt;User&lt;/font&gt;&lt;/b&gt;" style="text;strokeColor=none;fillColor=none;align=left;verticalAlign=middle;spacingLeft=4;spacingRight=4;overflow=hidden;points=[[0,0.5],[1,0.5]];portConstraint=eastwest;rotatable=0;whiteSpace=wrap;html=1;" parent="cHLdA_97b5sgt9IyF1GO-135" vertex="1">
          <mxGeometry y="60" width="160" height="30" as="geometry" />
        </mxCell>
        <mxCell id="cHLdA_97b5sgt9IyF1GO-137" value="&lt;b&gt;-&amp;nbsp; reservation&lt;/b&gt;&lt;font style=&quot;color: rgb(255, 0, 0);&quot;&gt;Reservation&lt;/font&gt;" style="text;strokeColor=none;fillColor=none;align=left;verticalAlign=middle;spacingLeft=4;spacingRight=4;overflow=hidden;points=[[0,0.5],[1,0.5]];portConstraint=eastwest;rotatable=0;whiteSpace=wrap;html=1;" parent="cHLdA_97b5sgt9IyF1GO-135" vertex="1">
          <mxGeometry y="90" width="160" height="30" as="geometry" />
        </mxCell>
        <mxCell id="mhdK4omJHa3uALLpDZvU-2" value="&lt;b&gt;-&amp;nbsp;&amp;nbsp;type&amp;nbsp;&lt;font style=&quot;color: rgb(255, 0, 0);&quot;&gt;string&lt;/font&gt;&lt;/b&gt;" style="text;strokeColor=none;fillColor=none;align=left;verticalAlign=middle;spacingLeft=4;spacingRight=4;overflow=hidden;points=[[0,0.5],[1,0.5]];portConstraint=eastwest;rotatable=0;whiteSpace=wrap;html=1;" parent="cHLdA_97b5sgt9IyF1GO-135" vertex="1">
          <mxGeometry y="120" width="160" height="30" as="geometry" />
        </mxCell>
        <mxCell id="cHLdA_97b5sgt9IyF1GO-146" value="&lt;b&gt;-&amp;nbsp;&amp;nbsp;message&amp;nbsp;&lt;font style=&quot;color: rgb(255, 0, 0);&quot;&gt;string&lt;/font&gt;&lt;/b&gt;" style="text;strokeColor=none;fillColor=none;align=left;verticalAlign=middle;spacingLeft=4;spacingRight=4;overflow=hidden;points=[[0,0.5],[1,0.5]];portConstraint=eastwest;rotatable=0;whiteSpace=wrap;html=1;" parent="cHLdA_97b5sgt9IyF1GO-135" vertex="1">
          <mxGeometry y="150" width="160" height="30" as="geometry" />
        </mxCell>
        <mxCell id="mhdK4omJHa3uALLpDZvU-3" value="&lt;b&gt;-&amp;nbsp;&amp;nbsp;sendTime&amp;nbsp;&lt;/b&gt;&lt;font style=&quot;color: rgb(255, 0, 0);&quot;&gt;&lt;b&gt;DateTime&lt;/b&gt;&lt;/font&gt;" style="text;strokeColor=none;fillColor=none;align=left;verticalAlign=middle;spacingLeft=4;spacingRight=4;overflow=hidden;points=[[0,0.5],[1,0.5]];portConstraint=eastwest;rotatable=0;whiteSpace=wrap;html=1;" parent="cHLdA_97b5sgt9IyF1GO-135" vertex="1">
          <mxGeometry y="180" width="160" height="30" as="geometry" />
        </mxCell>
        <mxCell id="mhdK4omJHa3uALLpDZvU-11" value="&lt;b&gt;&lt;font style=&quot;color: rgb(0, 0, 255);&quot;&gt;+ sendNotification()&lt;/font&gt;&lt;/b&gt;" style="text;strokeColor=none;fillColor=none;align=left;verticalAlign=middle;spacingLeft=4;spacingRight=4;overflow=hidden;points=[[0,0.5],[1,0.5]];portConstraint=eastwest;rotatable=0;whiteSpace=wrap;html=1;" parent="cHLdA_97b5sgt9IyF1GO-135" vertex="1">
          <mxGeometry y="210" width="160" height="30" as="geometry" />
        </mxCell>
        <mxCell id="mhdK4omJHa3uALLpDZvU-14" value="&lt;b&gt;1&lt;/b&gt;" style="text;html=1;align=center;verticalAlign=middle;whiteSpace=wrap;rounded=0;" parent="1" vertex="1">
          <mxGeometry x="740" y="564" width="10" height="20" as="geometry" />
        </mxCell>
        <mxCell id="mhdK4omJHa3uALLpDZvU-15" value="&lt;b&gt;*&lt;/b&gt;" style="text;html=1;align=center;verticalAlign=middle;whiteSpace=wrap;rounded=0;" parent="1" vertex="1">
          <mxGeometry x="526" y="477" width="10" height="20" as="geometry" />
        </mxCell>
        <mxCell id="mhdK4omJHa3uALLpDZvU-18" value="&lt;b&gt;1&lt;/b&gt;" style="text;html=1;align=center;verticalAlign=middle;whiteSpace=wrap;rounded=0;" parent="1" vertex="1">
          <mxGeometry x="560" y="831" width="10" height="20" as="geometry" />
        </mxCell>
        <mxCell id="mhdK4omJHa3uALLpDZvU-19" value="&lt;b&gt;*&lt;/b&gt;" style="text;html=1;align=center;verticalAlign=middle;whiteSpace=wrap;rounded=0;" parent="1" vertex="1">
          <mxGeometry x="472" y="839" width="10" height="20" as="geometry" />
        </mxCell>
        <mxCell id="mhdK4omJHa3uALLpDZvU-21" value="&lt;b&gt;1&lt;/b&gt;" style="text;html=1;align=center;verticalAlign=middle;whiteSpace=wrap;rounded=0;" parent="1" vertex="1">
          <mxGeometry x="254" y="791" width="10" height="20" as="geometry" />
        </mxCell>
        <mxCell id="cHLdA_97b5sgt9IyF1GO-108" value="&lt;b&gt;1&lt;/b&gt;" style="text;html=1;align=center;verticalAlign=middle;whiteSpace=wrap;rounded=0;" parent="1" vertex="1">
          <mxGeometry x="307" y="1098" width="10" height="20" as="geometry" />
        </mxCell>
        <mxCell id="KvS4S-314rDybUW0rxj4-6" value="&lt;b&gt;1&lt;/b&gt;" style="text;html=1;align=center;verticalAlign=middle;whiteSpace=wrap;rounded=0;" parent="1" vertex="1">
          <mxGeometry x="220" y="450" width="10" height="20" as="geometry" />
        </mxCell>
        <mxCell id="KvS4S-314rDybUW0rxj4-9" value="" style="endArrow=none;dashed=1;html=1;rounded=0;entryX=0.627;entryY=-0.017;entryDx=0;entryDy=0;entryPerimeter=0;" parent="1" source="cHLdA_97b5sgt9IyF1GO-17" target="cHLdA_97b5sgt9IyF1GO-107" edge="1">
          <mxGeometry width="50" height="50" relative="1" as="geometry">
            <mxPoint x="358" y="1031" as="sourcePoint" />
            <mxPoint x="313" y="1098" as="targetPoint" />
          </mxGeometry>
        </mxCell>
        <mxCell id="cHLdA_97b5sgt9IyF1GO-107" value="&lt;b&gt;1&lt;/b&gt;" style="text;html=1;align=center;verticalAlign=middle;whiteSpace=wrap;rounded=0;" parent="1" vertex="1">
          <mxGeometry x="344" y="1030" width="10" height="20" as="geometry" />
        </mxCell>
        <mxCell id="KvS4S-314rDybUW0rxj4-10" value="" style="endArrow=block;endSize=16;endFill=0;html=1;rounded=0;exitX=0.5;exitY=0;exitDx=0;exitDy=0;" parent="1" source="cHLdA_97b5sgt9IyF1GO-10" target="cHLdA_97b5sgt9IyF1GO-1" edge="1">
          <mxGeometry width="160" relative="1" as="geometry">
            <mxPoint x="310" y="300" as="sourcePoint" />
            <mxPoint x="470" y="300" as="targetPoint" />
          </mxGeometry>
        </mxCell>
        <mxCell id="KvS4S-314rDybUW0rxj4-11" value="" style="endArrow=block;endSize=16;endFill=0;html=1;rounded=0;" parent="1" source="cHLdA_97b5sgt9IyF1GO-24" target="cHLdA_97b5sgt9IyF1GO-1" edge="1">
          <mxGeometry width="160" relative="1" as="geometry">
            <mxPoint x="252" y="370" as="sourcePoint" />
            <mxPoint x="380" y="283" as="targetPoint" />
          </mxGeometry>
        </mxCell>
        <mxCell id="KvS4S-314rDybUW0rxj4-12" value="" style="endArrow=block;endSize=16;endFill=0;html=1;rounded=0;exitX=0.544;exitY=0.039;exitDx=0;exitDy=0;exitPerimeter=0;" parent="1" source="cHLdA_97b5sgt9IyF1GO-41" target="cHLdA_97b5sgt9IyF1GO-1" edge="1">
          <mxGeometry width="160" relative="1" as="geometry">
            <mxPoint x="252" y="370" as="sourcePoint" />
            <mxPoint x="380" y="283" as="targetPoint" />
          </mxGeometry>
        </mxCell>
        <mxCell id="KvS4S-314rDybUW0rxj4-13" value="" style="endArrow=none;html=1;rounded=0;exitX=0.5;exitY=0;exitDx=0;exitDy=0;" parent="1" source="cHLdA_97b5sgt9IyF1GO-135" target="cHLdA_97b5sgt9IyF1GO-10" edge="1">
          <mxGeometry width="50" height="50" relative="1" as="geometry">
            <mxPoint x="340" y="580" as="sourcePoint" />
            <mxPoint x="390" y="530" as="targetPoint" />
          </mxGeometry>
        </mxCell>
        <mxCell id="KvS4S-314rDybUW0rxj4-14" value="" style="endArrow=none;html=1;rounded=0;exitX=0.5;exitY=0;exitDx=0;exitDy=0;" parent="1" source="cHLdA_97b5sgt9IyF1GO-61" target="cHLdA_97b5sgt9IyF1GO-10" edge="1">
          <mxGeometry width="50" height="50" relative="1" as="geometry">
            <mxPoint x="340" y="580" as="sourcePoint" />
            <mxPoint x="390" y="530" as="targetPoint" />
          </mxGeometry>
        </mxCell>
        <mxCell id="KvS4S-314rDybUW0rxj4-16" value="" style="endArrow=none;html=1;rounded=0;" parent="1" source="cHLdA_97b5sgt9IyF1GO-61" target="cHLdA_97b5sgt9IyF1GO-24" edge="1">
          <mxGeometry width="50" height="50" relative="1" as="geometry">
            <mxPoint x="340" y="580" as="sourcePoint" />
            <mxPoint x="390" y="530" as="targetPoint" />
          </mxGeometry>
        </mxCell>
        <mxCell id="KvS4S-314rDybUW0rxj4-17" value="" style="endArrow=none;html=1;rounded=0;exitX=0.5;exitY=0;exitDx=0;exitDy=0;" parent="1" source="cHLdA_97b5sgt9IyF1GO-124" target="cHLdA_97b5sgt9IyF1GO-24" edge="1">
          <mxGeometry width="50" height="50" relative="1" as="geometry">
            <mxPoint x="340" y="580" as="sourcePoint" />
            <mxPoint x="390" y="530" as="targetPoint" />
          </mxGeometry>
        </mxCell>
        <mxCell id="KvS4S-314rDybUW0rxj4-18" value="" style="endArrow=none;html=1;rounded=0;exitX=0.5;exitY=0;exitDx=0;exitDy=0;" parent="1" source="cHLdA_97b5sgt9IyF1GO-49" target="cHLdA_97b5sgt9IyF1GO-124" edge="1">
          <mxGeometry width="50" height="50" relative="1" as="geometry">
            <mxPoint x="340" y="580" as="sourcePoint" />
            <mxPoint x="390" y="530" as="targetPoint" />
          </mxGeometry>
        </mxCell>
        <mxCell id="KvS4S-314rDybUW0rxj4-21" value="" style="endArrow=none;html=1;rounded=0;" parent="1" source="cHLdA_97b5sgt9IyF1GO-135" target="cHLdA_97b5sgt9IyF1GO-61" edge="1">
          <mxGeometry width="50" height="50" relative="1" as="geometry">
            <mxPoint x="340" y="960" as="sourcePoint" />
            <mxPoint x="390" y="910" as="targetPoint" />
          </mxGeometry>
        </mxCell>
        <mxCell id="KvS4S-314rDybUW0rxj4-22" value="&lt;b&gt;*&lt;/b&gt;" style="text;html=1;align=center;verticalAlign=middle;whiteSpace=wrap;rounded=0;" parent="1" vertex="1">
          <mxGeometry x="190" y="766" width="10" height="20" as="geometry" />
        </mxCell>
        <mxCell id="KvS4S-314rDybUW0rxj4-24" value="" style="endArrow=none;html=1;rounded=0;" parent="1" source="cHLdA_97b5sgt9IyF1GO-80" target="cHLdA_97b5sgt9IyF1GO-61" edge="1">
          <mxGeometry width="50" height="50" relative="1" as="geometry">
            <mxPoint x="340" y="960" as="sourcePoint" />
            <mxPoint x="390" y="910" as="targetPoint" />
          </mxGeometry>
        </mxCell>
        <mxCell id="KvS4S-314rDybUW0rxj4-25" value="" style="endArrow=none;html=1;rounded=0;exitX=0.75;exitY=0;exitDx=0;exitDy=0;" parent="1" source="cHLdA_97b5sgt9IyF1GO-73" target="cHLdA_97b5sgt9IyF1GO-61" edge="1">
          <mxGeometry width="50" height="50" relative="1" as="geometry">
            <mxPoint x="340" y="960" as="sourcePoint" />
            <mxPoint x="390" y="910" as="targetPoint" />
          </mxGeometry>
        </mxCell>
        <mxCell id="KvS4S-314rDybUW0rxj4-26" value="" style="endArrow=none;html=1;rounded=0;" parent="1" source="cHLdA_97b5sgt9IyF1GO-49" target="cHLdA_97b5sgt9IyF1GO-61" edge="1">
          <mxGeometry width="50" height="50" relative="1" as="geometry">
            <mxPoint x="360" y="860" as="sourcePoint" />
            <mxPoint x="410" y="810" as="targetPoint" />
          </mxGeometry>
        </mxCell>
      </root>
    </mxGraphModel>
  </diagram>
</mxfile>
